<mxfile host="app.diagrams.net" agent="Mozilla/5.0 (Windows NT 10.0; Win64; x64) AppleWebKit/537.36 (KHTML, like Gecko) Chrome/130.0.0.0 Safari/537.36" version="24.8.3">
  <diagram id="C5RBs43oDa-KdzZeNtuy" name="Page-1">
    <mxGraphModel dx="2261" dy="738" grid="1" gridSize="10" guides="1" tooltips="1" connect="1" arrows="1" fold="1" page="1" pageScale="1" pageWidth="827" pageHeight="1169" math="0" shadow="0">
      <root>
        <mxCell id="WIyWlLk6GJQsqaUBKTNV-0" />
        <mxCell id="WIyWlLk6GJQsqaUBKTNV-1" parent="WIyWlLk6GJQsqaUBKTNV-0" />
        <mxCell id="WIyWlLk6GJQsqaUBKTNV-2" value="" style="rounded=0;html=1;jettySize=auto;orthogonalLoop=1;fontSize=11;endArrow=block;endFill=0;endSize=8;strokeWidth=1;shadow=0;labelBackgroundColor=none;edgeStyle=orthogonalEdgeStyle;" parent="WIyWlLk6GJQsqaUBKTNV-1" source="WIyWlLk6GJQsqaUBKTNV-3" target="WIyWlLk6GJQsqaUBKTNV-6" edge="1">
          <mxGeometry relative="1" as="geometry" />
        </mxCell>
        <mxCell id="WIyWlLk6GJQsqaUBKTNV-3" value="INICIO" style="rounded=1;whiteSpace=wrap;html=1;fontSize=12;glass=0;strokeWidth=1;shadow=0;fillColor=#d5e8d4;strokeColor=#82b366;" parent="WIyWlLk6GJQsqaUBKTNV-1" vertex="1">
          <mxGeometry x="-240" y="10" width="120" height="40" as="geometry" />
        </mxCell>
        <mxCell id="WIyWlLk6GJQsqaUBKTNV-4" value="" style="rounded=0;html=1;jettySize=auto;orthogonalLoop=1;fontSize=11;endArrow=block;endFill=0;endSize=8;strokeWidth=1;shadow=0;labelBackgroundColor=none;edgeStyle=orthogonalEdgeStyle;" parent="WIyWlLk6GJQsqaUBKTNV-1" source="WIyWlLk6GJQsqaUBKTNV-6" target="WIyWlLk6GJQsqaUBKTNV-10" edge="1">
          <mxGeometry y="20" relative="1" as="geometry">
            <mxPoint as="offset" />
          </mxGeometry>
        </mxCell>
        <mxCell id="WIyWlLk6GJQsqaUBKTNV-6" value="ACESSAR O SITE&amp;nbsp;" style="rhombus;whiteSpace=wrap;html=1;shadow=0;fontFamily=Helvetica;fontSize=12;align=center;strokeWidth=1;spacing=6;spacingTop=-4;" parent="WIyWlLk6GJQsqaUBKTNV-1" vertex="1">
          <mxGeometry x="-245" y="80" width="130" height="90" as="geometry" />
        </mxCell>
        <mxCell id="WIyWlLk6GJQsqaUBKTNV-8" value="" style="rounded=0;html=1;jettySize=auto;orthogonalLoop=1;fontSize=11;endArrow=block;endFill=0;endSize=8;strokeWidth=1;shadow=0;labelBackgroundColor=none;edgeStyle=orthogonalEdgeStyle;" parent="WIyWlLk6GJQsqaUBKTNV-1" source="WIyWlLk6GJQsqaUBKTNV-10" target="WIyWlLk6GJQsqaUBKTNV-11" edge="1">
          <mxGeometry x="0.3333" y="20" relative="1" as="geometry">
            <mxPoint as="offset" />
          </mxGeometry>
        </mxCell>
        <mxCell id="WIyWlLk6GJQsqaUBKTNV-10" value="INSERIR TEXTO NO CAMPO DE BUSCA" style="rhombus;whiteSpace=wrap;html=1;shadow=0;fontFamily=Helvetica;fontSize=12;align=center;strokeWidth=1;spacing=6;spacingTop=-4;" parent="WIyWlLk6GJQsqaUBKTNV-1" vertex="1">
          <mxGeometry x="-257.5" y="210" width="155" height="130" as="geometry" />
        </mxCell>
        <mxCell id="-nxJACIKHufAPqED0fHf-0" style="edgeStyle=orthogonalEdgeStyle;rounded=0;orthogonalLoop=1;jettySize=auto;html=1;" edge="1" parent="WIyWlLk6GJQsqaUBKTNV-1" source="-nxJACIKHufAPqED0fHf-1" target="-nxJACIKHufAPqED0fHf-2">
          <mxGeometry relative="1" as="geometry">
            <mxPoint x="-20" y="410" as="targetPoint" />
            <Array as="points">
              <mxPoint x="-19" y="410" />
            </Array>
          </mxGeometry>
        </mxCell>
        <mxCell id="-nxJACIKHufAPqED0fHf-21" value="" style="edgeStyle=orthogonalEdgeStyle;rounded=0;orthogonalLoop=1;jettySize=auto;html=1;" edge="1" parent="WIyWlLk6GJQsqaUBKTNV-1" source="-nxJACIKHufAPqED0fHf-22" target="-nxJACIKHufAPqED0fHf-20">
          <mxGeometry relative="1" as="geometry" />
        </mxCell>
        <mxCell id="WIyWlLk6GJQsqaUBKTNV-11" value="O TEXTO É VÁLIDO ?" style="rounded=1;whiteSpace=wrap;html=1;fontSize=12;glass=0;strokeWidth=1;shadow=0;" parent="WIyWlLk6GJQsqaUBKTNV-1" vertex="1">
          <mxGeometry x="-240" y="390" width="120" height="40" as="geometry" />
        </mxCell>
        <mxCell id="-nxJACIKHufAPqED0fHf-19" value="" style="edgeStyle=orthogonalEdgeStyle;rounded=0;orthogonalLoop=1;jettySize=auto;html=1;" edge="1" parent="WIyWlLk6GJQsqaUBKTNV-1" source="-nxJACIKHufAPqED0fHf-28" target="-nxJACIKHufAPqED0fHf-18">
          <mxGeometry relative="1" as="geometry" />
        </mxCell>
        <mxCell id="-nxJACIKHufAPqED0fHf-2" value="RESULTADOS EXIBIDOS?" style="rounded=0;whiteSpace=wrap;html=1;" vertex="1" parent="WIyWlLk6GJQsqaUBKTNV-1">
          <mxGeometry x="-20" y="390" width="100" height="40" as="geometry" />
        </mxCell>
        <mxCell id="-nxJACIKHufAPqED0fHf-9" value="" style="edgeStyle=orthogonalEdgeStyle;rounded=0;orthogonalLoop=1;jettySize=auto;html=1;" edge="1" parent="WIyWlLk6GJQsqaUBKTNV-1" source="-nxJACIKHufAPqED0fHf-10">
          <mxGeometry relative="1" as="geometry">
            <mxPoint x="200" y="410" as="targetPoint" />
            <mxPoint x="80" y="410" as="sourcePoint" />
            <Array as="points">
              <mxPoint x="180" y="410" />
            </Array>
          </mxGeometry>
        </mxCell>
        <mxCell id="-nxJACIKHufAPqED0fHf-11" value="" style="shape=curlyBracket;whiteSpace=wrap;html=1;rounded=1;labelPosition=left;verticalLabelPosition=middle;align=right;verticalAlign=middle;size=0.5;" vertex="1" parent="WIyWlLk6GJQsqaUBKTNV-1">
          <mxGeometry x="200" y="395" width="20" height="30" as="geometry" />
        </mxCell>
        <mxCell id="-nxJACIKHufAPqED0fHf-16" value="" style="shape=curlyBracket;whiteSpace=wrap;html=1;rounded=1;flipH=1;labelPosition=right;verticalLabelPosition=middle;align=left;verticalAlign=middle;size=0.5;" vertex="1" parent="WIyWlLk6GJQsqaUBKTNV-1">
          <mxGeometry x="240" y="395" width="20" height="30" as="geometry" />
        </mxCell>
        <mxCell id="-nxJACIKHufAPqED0fHf-15" value="OK" style="text;html=1;align=center;verticalAlign=middle;whiteSpace=wrap;rounded=0;fillColor=#fff2cc;strokeColor=#d6b656;" vertex="1" parent="WIyWlLk6GJQsqaUBKTNV-1">
          <mxGeometry x="200" y="395" width="60" height="30" as="geometry" />
        </mxCell>
        <mxCell id="-nxJACIKHufAPqED0fHf-18" value="BUG" style="whiteSpace=wrap;html=1;rounded=0;fillColor=#f8cecc;strokeColor=#b85450;" vertex="1" parent="WIyWlLk6GJQsqaUBKTNV-1">
          <mxGeometry x="2.5" y="520" width="55" height="20" as="geometry" />
        </mxCell>
        <mxCell id="-nxJACIKHufAPqED0fHf-33" value="" style="edgeStyle=orthogonalEdgeStyle;rounded=0;orthogonalLoop=1;jettySize=auto;html=1;" edge="1" parent="WIyWlLk6GJQsqaUBKTNV-1" source="-nxJACIKHufAPqED0fHf-34" target="-nxJACIKHufAPqED0fHf-32">
          <mxGeometry relative="1" as="geometry" />
        </mxCell>
        <mxCell id="-nxJACIKHufAPqED0fHf-20" value="PALAVRA INVÁLIDA?" style="whiteSpace=wrap;html=1;rounded=1;glass=0;strokeWidth=1;shadow=0;" vertex="1" parent="WIyWlLk6GJQsqaUBKTNV-1">
          <mxGeometry x="-240" y="520" width="120" height="60" as="geometry" />
        </mxCell>
        <mxCell id="-nxJACIKHufAPqED0fHf-23" value="" style="edgeStyle=orthogonalEdgeStyle;rounded=0;orthogonalLoop=1;jettySize=auto;html=1;" edge="1" parent="WIyWlLk6GJQsqaUBKTNV-1" source="-nxJACIKHufAPqED0fHf-2" target="-nxJACIKHufAPqED0fHf-10">
          <mxGeometry relative="1" as="geometry">
            <mxPoint x="200" y="410" as="targetPoint" />
            <mxPoint x="80" y="410" as="sourcePoint" />
            <Array as="points">
              <mxPoint x="110" y="410" />
              <mxPoint x="110" y="410" />
            </Array>
          </mxGeometry>
        </mxCell>
        <mxCell id="-nxJACIKHufAPqED0fHf-10" value="SIM" style="text;html=1;align=center;verticalAlign=middle;resizable=0;points=[];autosize=1;strokeColor=none;fillColor=none;" vertex="1" parent="WIyWlLk6GJQsqaUBKTNV-1">
          <mxGeometry x="120" y="395" width="40" height="30" as="geometry" />
        </mxCell>
        <mxCell id="-nxJACIKHufAPqED0fHf-26" value="" style="edgeStyle=orthogonalEdgeStyle;rounded=0;orthogonalLoop=1;jettySize=auto;html=1;" edge="1" parent="WIyWlLk6GJQsqaUBKTNV-1" source="WIyWlLk6GJQsqaUBKTNV-11" target="-nxJACIKHufAPqED0fHf-1">
          <mxGeometry relative="1" as="geometry">
            <mxPoint x="-20" y="410" as="targetPoint" />
            <mxPoint x="-120" y="410" as="sourcePoint" />
            <Array as="points" />
          </mxGeometry>
        </mxCell>
        <mxCell id="-nxJACIKHufAPqED0fHf-1" value="SIM" style="text;html=1;align=center;verticalAlign=middle;resizable=0;points=[];autosize=1;strokeColor=none;fillColor=none;" vertex="1" parent="WIyWlLk6GJQsqaUBKTNV-1">
          <mxGeometry x="-90" y="395" width="40" height="30" as="geometry" />
        </mxCell>
        <mxCell id="-nxJACIKHufAPqED0fHf-27" value="" style="edgeStyle=orthogonalEdgeStyle;rounded=0;orthogonalLoop=1;jettySize=auto;html=1;" edge="1" parent="WIyWlLk6GJQsqaUBKTNV-1" source="WIyWlLk6GJQsqaUBKTNV-11" target="-nxJACIKHufAPqED0fHf-22">
          <mxGeometry relative="1" as="geometry">
            <mxPoint x="-180" y="430" as="sourcePoint" />
            <mxPoint x="-180" y="500" as="targetPoint" />
          </mxGeometry>
        </mxCell>
        <mxCell id="-nxJACIKHufAPqED0fHf-22" value="NÃO" style="text;html=1;align=center;verticalAlign=middle;whiteSpace=wrap;rounded=0;" vertex="1" parent="WIyWlLk6GJQsqaUBKTNV-1">
          <mxGeometry x="-210" y="460" width="60" height="30" as="geometry" />
        </mxCell>
        <mxCell id="-nxJACIKHufAPqED0fHf-29" value="" style="edgeStyle=orthogonalEdgeStyle;rounded=0;orthogonalLoop=1;jettySize=auto;html=1;" edge="1" parent="WIyWlLk6GJQsqaUBKTNV-1" source="-nxJACIKHufAPqED0fHf-2" target="-nxJACIKHufAPqED0fHf-28">
          <mxGeometry relative="1" as="geometry">
            <mxPoint x="30" y="430" as="sourcePoint" />
            <mxPoint x="30" y="500" as="targetPoint" />
          </mxGeometry>
        </mxCell>
        <mxCell id="-nxJACIKHufAPqED0fHf-28" value="NÃO" style="text;html=1;align=center;verticalAlign=middle;whiteSpace=wrap;rounded=0;" vertex="1" parent="WIyWlLk6GJQsqaUBKTNV-1">
          <mxGeometry y="460" width="60" height="30" as="geometry" />
        </mxCell>
        <mxCell id="-nxJACIKHufAPqED0fHf-37" value="" style="edgeStyle=orthogonalEdgeStyle;rounded=0;orthogonalLoop=1;jettySize=auto;html=1;" edge="1" parent="WIyWlLk6GJQsqaUBKTNV-1" source="-nxJACIKHufAPqED0fHf-32" target="-nxJACIKHufAPqED0fHf-36">
          <mxGeometry relative="1" as="geometry" />
        </mxCell>
        <mxCell id="-nxJACIKHufAPqED0fHf-32" value="&lt;i&gt;&lt;b&gt;&lt;u&gt;AÇÃO&lt;/u&gt;&lt;/b&gt;&lt;/i&gt;: EXIBIR MENSAGEM DE ERRO" style="whiteSpace=wrap;html=1;rounded=1;glass=0;strokeWidth=1;shadow=0;" vertex="1" parent="WIyWlLk6GJQsqaUBKTNV-1">
          <mxGeometry x="-240" y="660" width="120" height="60" as="geometry" />
        </mxCell>
        <mxCell id="-nxJACIKHufAPqED0fHf-35" value="" style="edgeStyle=orthogonalEdgeStyle;rounded=0;orthogonalLoop=1;jettySize=auto;html=1;" edge="1" parent="WIyWlLk6GJQsqaUBKTNV-1" source="-nxJACIKHufAPqED0fHf-20" target="-nxJACIKHufAPqED0fHf-34">
          <mxGeometry relative="1" as="geometry">
            <mxPoint x="-180" y="580" as="sourcePoint" />
            <mxPoint x="-180" y="660" as="targetPoint" />
          </mxGeometry>
        </mxCell>
        <mxCell id="-nxJACIKHufAPqED0fHf-34" value="SIM" style="text;html=1;align=center;verticalAlign=middle;resizable=0;points=[];autosize=1;strokeColor=none;fillColor=none;" vertex="1" parent="WIyWlLk6GJQsqaUBKTNV-1">
          <mxGeometry x="-200" y="600" width="40" height="30" as="geometry" />
        </mxCell>
        <mxCell id="-nxJACIKHufAPqED0fHf-39" value="" style="edgeStyle=orthogonalEdgeStyle;rounded=0;orthogonalLoop=1;jettySize=auto;html=1;" edge="1" parent="WIyWlLk6GJQsqaUBKTNV-1" source="-nxJACIKHufAPqED0fHf-40" target="-nxJACIKHufAPqED0fHf-38">
          <mxGeometry relative="1" as="geometry" />
        </mxCell>
        <mxCell id="-nxJACIKHufAPqED0fHf-43" value="" style="edgeStyle=orthogonalEdgeStyle;rounded=0;orthogonalLoop=1;jettySize=auto;html=1;" edge="1" parent="WIyWlLk6GJQsqaUBKTNV-1" source="-nxJACIKHufAPqED0fHf-36" target="-nxJACIKHufAPqED0fHf-40">
          <mxGeometry relative="1" as="geometry" />
        </mxCell>
        <mxCell id="-nxJACIKHufAPqED0fHf-51" value="" style="edgeStyle=orthogonalEdgeStyle;rounded=0;orthogonalLoop=1;jettySize=auto;html=1;" edge="1" parent="WIyWlLk6GJQsqaUBKTNV-1" source="-nxJACIKHufAPqED0fHf-52">
          <mxGeometry relative="1" as="geometry">
            <mxPoint x="-180" y="940" as="targetPoint" />
          </mxGeometry>
        </mxCell>
        <mxCell id="-nxJACIKHufAPqED0fHf-36" value="MENSAGEM CORRETA ?" style="whiteSpace=wrap;html=1;rounded=1;glass=0;strokeWidth=1;shadow=0;" vertex="1" parent="WIyWlLk6GJQsqaUBKTNV-1">
          <mxGeometry x="-240" y="800" width="120" height="60" as="geometry" />
        </mxCell>
        <mxCell id="-nxJACIKHufAPqED0fHf-48" value="" style="edgeStyle=orthogonalEdgeStyle;rounded=0;orthogonalLoop=1;jettySize=auto;html=1;" edge="1" parent="WIyWlLk6GJQsqaUBKTNV-1" source="-nxJACIKHufAPqED0fHf-38" target="-nxJACIKHufAPqED0fHf-44">
          <mxGeometry relative="1" as="geometry" />
        </mxCell>
        <mxCell id="-nxJACIKHufAPqED0fHf-38" value="OK" style="whiteSpace=wrap;html=1;rounded=1;glass=0;strokeWidth=1;shadow=0;fillColor=#fff2cc;strokeColor=#d6b656;" vertex="1" parent="WIyWlLk6GJQsqaUBKTNV-1">
          <mxGeometry x="10" y="815" width="50" height="30" as="geometry" />
        </mxCell>
        <mxCell id="-nxJACIKHufAPqED0fHf-40" value="SIM" style="text;html=1;align=center;verticalAlign=middle;resizable=0;points=[];autosize=1;strokeColor=none;fillColor=none;" vertex="1" parent="WIyWlLk6GJQsqaUBKTNV-1">
          <mxGeometry x="-80" y="815" width="40" height="30" as="geometry" />
        </mxCell>
        <mxCell id="-nxJACIKHufAPqED0fHf-49" value="" style="edgeStyle=orthogonalEdgeStyle;rounded=0;orthogonalLoop=1;jettySize=auto;html=1;" edge="1" parent="WIyWlLk6GJQsqaUBKTNV-1" source="-nxJACIKHufAPqED0fHf-44" target="-nxJACIKHufAPqED0fHf-47">
          <mxGeometry relative="1" as="geometry" />
        </mxCell>
        <mxCell id="-nxJACIKHufAPqED0fHf-44" value="NÃO" style="text;html=1;align=center;verticalAlign=middle;whiteSpace=wrap;rounded=0;" vertex="1" parent="WIyWlLk6GJQsqaUBKTNV-1">
          <mxGeometry x="5" y="880" width="60" height="30" as="geometry" />
        </mxCell>
        <mxCell id="-nxJACIKHufAPqED0fHf-47" value="BUG" style="whiteSpace=wrap;html=1;rounded=1;glass=0;strokeWidth=1;shadow=0;fillColor=#f8cecc;strokeColor=#b85450;" vertex="1" parent="WIyWlLk6GJQsqaUBKTNV-1">
          <mxGeometry x="10" y="950" width="50" height="30" as="geometry" />
        </mxCell>
        <mxCell id="-nxJACIKHufAPqED0fHf-53" value="" style="edgeStyle=orthogonalEdgeStyle;rounded=0;orthogonalLoop=1;jettySize=auto;html=1;" edge="1" parent="WIyWlLk6GJQsqaUBKTNV-1" source="-nxJACIKHufAPqED0fHf-36" target="-nxJACIKHufAPqED0fHf-52">
          <mxGeometry relative="1" as="geometry">
            <mxPoint x="-180" y="860" as="sourcePoint" />
            <mxPoint x="-180" y="940" as="targetPoint" />
          </mxGeometry>
        </mxCell>
        <mxCell id="-nxJACIKHufAPqED0fHf-52" value="NÃO" style="text;html=1;align=center;verticalAlign=middle;whiteSpace=wrap;rounded=0;" vertex="1" parent="WIyWlLk6GJQsqaUBKTNV-1">
          <mxGeometry x="-210" y="880" width="60" height="30" as="geometry" />
        </mxCell>
        <mxCell id="-nxJACIKHufAPqED0fHf-56" value="" style="edgeStyle=orthogonalEdgeStyle;rounded=0;orthogonalLoop=1;jettySize=auto;html=1;" edge="1" parent="WIyWlLk6GJQsqaUBKTNV-1" source="-nxJACIKHufAPqED0fHf-54" target="-nxJACIKHufAPqED0fHf-55">
          <mxGeometry relative="1" as="geometry" />
        </mxCell>
        <mxCell id="-nxJACIKHufAPqED0fHf-54" value="BUG" style="whiteSpace=wrap;html=1;rounded=1;glass=0;strokeWidth=1;shadow=0;fillColor=#f8cecc;strokeColor=#b85450;" vertex="1" parent="WIyWlLk6GJQsqaUBKTNV-1">
          <mxGeometry x="-205" y="940" width="50" height="30" as="geometry" />
        </mxCell>
        <mxCell id="-nxJACIKHufAPqED0fHf-58" value="" style="edgeStyle=orthogonalEdgeStyle;rounded=0;orthogonalLoop=1;jettySize=auto;html=1;" edge="1" parent="WIyWlLk6GJQsqaUBKTNV-1" source="-nxJACIKHufAPqED0fHf-59" target="-nxJACIKHufAPqED0fHf-57">
          <mxGeometry relative="1" as="geometry" />
        </mxCell>
        <mxCell id="-nxJACIKHufAPqED0fHf-66" value="" style="edgeStyle=orthogonalEdgeStyle;rounded=0;orthogonalLoop=1;jettySize=auto;html=1;" edge="1" parent="WIyWlLk6GJQsqaUBKTNV-1" source="-nxJACIKHufAPqED0fHf-55" target="-nxJACIKHufAPqED0fHf-65">
          <mxGeometry relative="1" as="geometry" />
        </mxCell>
        <mxCell id="-nxJACIKHufAPqED0fHf-55" value="CAMPO DE BUSCA VAZIO?" style="whiteSpace=wrap;html=1;rounded=1;glass=0;strokeWidth=1;shadow=0;" vertex="1" parent="WIyWlLk6GJQsqaUBKTNV-1">
          <mxGeometry x="-240" y="1035" width="120" height="60" as="geometry" />
        </mxCell>
        <mxCell id="-nxJACIKHufAPqED0fHf-62" value="" style="edgeStyle=orthogonalEdgeStyle;rounded=0;orthogonalLoop=1;jettySize=auto;html=1;" edge="1" parent="WIyWlLk6GJQsqaUBKTNV-1" source="-nxJACIKHufAPqED0fHf-63">
          <mxGeometry relative="1" as="geometry">
            <mxPoint x="20" y="1175" as="targetPoint" />
          </mxGeometry>
        </mxCell>
        <mxCell id="-nxJACIKHufAPqED0fHf-57" value="&lt;u style=&quot;font-weight: bold; font-style: italic;&quot;&gt;AÇÃO: &lt;/u&gt;EXIBIR MENSAGEM DE ERRO" style="whiteSpace=wrap;html=1;rounded=1;glass=0;strokeWidth=1;shadow=0;" vertex="1" parent="WIyWlLk6GJQsqaUBKTNV-1">
          <mxGeometry x="-40" y="1035" width="120" height="60" as="geometry" />
        </mxCell>
        <mxCell id="-nxJACIKHufAPqED0fHf-60" value="" style="edgeStyle=orthogonalEdgeStyle;rounded=0;orthogonalLoop=1;jettySize=auto;html=1;" edge="1" parent="WIyWlLk6GJQsqaUBKTNV-1" source="-nxJACIKHufAPqED0fHf-55" target="-nxJACIKHufAPqED0fHf-59">
          <mxGeometry relative="1" as="geometry">
            <mxPoint x="-120" y="1065" as="sourcePoint" />
            <mxPoint x="-40" y="1065" as="targetPoint" />
          </mxGeometry>
        </mxCell>
        <mxCell id="-nxJACIKHufAPqED0fHf-59" value="SIM" style="text;html=1;align=center;verticalAlign=middle;resizable=0;points=[];autosize=1;strokeColor=none;fillColor=none;" vertex="1" parent="WIyWlLk6GJQsqaUBKTNV-1">
          <mxGeometry x="-102.5" y="1050" width="40" height="30" as="geometry" />
        </mxCell>
        <mxCell id="-nxJACIKHufAPqED0fHf-64" value="" style="edgeStyle=orthogonalEdgeStyle;rounded=0;orthogonalLoop=1;jettySize=auto;html=1;" edge="1" parent="WIyWlLk6GJQsqaUBKTNV-1" source="-nxJACIKHufAPqED0fHf-57" target="-nxJACIKHufAPqED0fHf-63">
          <mxGeometry relative="1" as="geometry">
            <mxPoint x="20" y="1095" as="sourcePoint" />
            <mxPoint x="20" y="1175" as="targetPoint" />
          </mxGeometry>
        </mxCell>
        <mxCell id="-nxJACIKHufAPqED0fHf-63" value="NÃO" style="text;html=1;align=center;verticalAlign=middle;whiteSpace=wrap;rounded=0;" vertex="1" parent="WIyWlLk6GJQsqaUBKTNV-1">
          <mxGeometry x="-10" y="1110" width="60" height="30" as="geometry" />
        </mxCell>
        <mxCell id="-nxJACIKHufAPqED0fHf-68" value="" style="edgeStyle=orthogonalEdgeStyle;rounded=0;orthogonalLoop=1;jettySize=auto;html=1;" edge="1" parent="WIyWlLk6GJQsqaUBKTNV-1" source="-nxJACIKHufAPqED0fHf-65">
          <mxGeometry relative="1" as="geometry">
            <mxPoint x="-180" y="1225" as="targetPoint" />
          </mxGeometry>
        </mxCell>
        <mxCell id="-nxJACIKHufAPqED0fHf-65" value="NÃO" style="text;html=1;align=center;verticalAlign=middle;whiteSpace=wrap;rounded=0;" vertex="1" parent="WIyWlLk6GJQsqaUBKTNV-1">
          <mxGeometry x="-210" y="1130" width="60" height="30" as="geometry" />
        </mxCell>
        <mxCell id="-nxJACIKHufAPqED0fHf-69" value="BUG" style="whiteSpace=wrap;html=1;rounded=1;glass=0;strokeWidth=1;shadow=0;fillColor=#f8cecc;strokeColor=#b85450;" vertex="1" parent="WIyWlLk6GJQsqaUBKTNV-1">
          <mxGeometry x="-5" y="1180" width="50" height="30" as="geometry" />
        </mxCell>
        <mxCell id="-nxJACIKHufAPqED0fHf-70" value="BUG" style="whiteSpace=wrap;html=1;rounded=1;glass=0;strokeWidth=1;shadow=0;fillColor=#f8cecc;strokeColor=#b85450;" vertex="1" parent="WIyWlLk6GJQsqaUBKTNV-1">
          <mxGeometry x="-205" y="1230" width="50" height="30" as="geometry" />
        </mxCell>
      </root>
    </mxGraphModel>
  </diagram>
</mxfile>
